<?xml version="1.0" encoding="UTF-8" standalone="no"?>
<!DOCTYPE svg PUBLIC "-//W3C//DTD SVG 20010904//EN"
              "http://www.w3.org/TR/2001/REC-SVG-20010904/DTD/svg10.dtd">

<svg xmlns="http://www.w3.org/2000/svg"
     width="5.55556in" height="5.55556in"
     viewBox="0 0 400 400">
  <path id="Logo"
        fill="#fb7733" stroke="black" stroke-width="1"
        d="M 132.00,364.00
           C 117.40,363.98 103.86,358.50 94.47,347.00
             94.47,347.00 71.72,309.00 71.72,309.00
             71.72,309.00 38.15,251.00 38.15,251.00
             32.66,241.43 18.65,219.22 16.16,210.00
             14.59,204.20 14.93,197.97 15.00,192.00
             15.18,176.93 28.26,159.12 35.72,146.00
             35.72,146.00 78.58,72.00 78.58,72.00
             82.91,64.45 90.76,49.94 96.17,44.01
             105.61,33.69 118.23,29.02 132.00,29.00
             132.00,29.00 271.00,29.00 271.00,29.00
             285.67,29.02 299.33,35.38 308.48,47.00
             308.48,47.00 330.42,84.00 330.42,84.00
             330.42,84.00 373.28,158.00 373.28,158.00
             382.09,173.50 389.39,183.26 387.15,202.00
             386.63,206.38 386.45,208.71 384.91,213.00
             382.47,219.82 377.07,227.75 373.19,234.00
             365.11,247.04 358.37,260.44 344.00,267.63
             331.05,274.10 316.99,273.00 303.00,273.00
             303.00,273.00 239.00,273.00 239.00,273.00
             240.99,266.05 246.96,257.41 250.80,251.00
             250.80,251.00 271.00,217.00 271.00,217.00
             273.77,212.38 282.81,199.93 281.82,195.00
             281.24,192.09 273.96,180.31 272.01,177.00
             272.01,177.00 250.58,140.00 250.58,140.00
             244.95,130.18 244.84,125.02 233.00,125.00
             233.00,125.00 169.00,125.00 169.00,125.00
             166.53,125.00 163.30,124.80 161.10,126.02
             158.18,127.64 156.09,132.14 154.40,135.00
             154.40,135.00 143.40,154.00 143.40,154.00
             143.40,154.00 125.42,185.00 125.42,185.00
             123.47,188.41 119.34,194.07 120.20,198.00
             120.70,200.29 127.24,211.19 128.85,214.00
             128.85,214.00 147.99,247.00 147.99,247.00
             147.99,247.00 189.42,319.00 189.42,319.00
             189.42,319.00 215.00,364.00 215.00,364.00
             215.00,364.00 132.00,364.00 132.00,364.00 Z" />
  <path id="Mustache"
        fill="black" stroke="black" stroke-width="1"
        d="M 26.80,221.04
           C 25.82,223.23 25.74,225.68 26.26,228.00
             28.26,236.85 39.26,238.81 47.00,238.99
             78.57,239.70 91.30,216.17 110.09,196.00
             128.07,176.69 142.27,167.69 169.00,168.00
             175.72,168.08 183.22,169.99 189.00,173.48
             191.81,175.17 197.60,180.96 200.00,180.96
             202.35,180.96 205.23,177.76 207.00,176.33
             210.29,173.66 213.03,172.12 217.00,170.70
             232.30,165.23 251.99,167.98 266.00,175.87
             299.54,194.78 310.49,239.95 353.00,238.99
             362.03,238.78 378.09,234.57 373.62,222.01
             371.44,215.90 364.03,211.38 361.00,223.00
             355.65,219.30 359.97,209.39 365.04,207.09
             372.31,203.79 382.24,210.22 384.99,217.00
             386.33,220.30 386.01,225.39 386.00,229.00
             385.97,250.76 367.20,263.59 348.00,268.85
             315.96,277.63 267.34,268.41 238.00,253.75
             227.28,248.40 220.50,244.87 211.00,237.20
             208.71,235.34 202.50,229.04 200.00,229.04
             197.53,229.04 190.38,236.10 188.00,238.00
             177.76,246.16 169.62,250.12 158.00,255.74
             139.43,264.73 107.62,271.97 87.00,272.00
             87.00,272.00 74.00,272.00 74.00,272.00
             54.63,271.97 31.23,264.49 19.77,248.00
             11.13,235.56 8.25,213.25 26.00,207.11
             29.89,205.76 34.36,205.71 37.58,208.65
             41.19,211.94 43.48,219.96 39.00,223.00
             36.16,212.11 29.38,215.33 26.80,221.04 Z" />
</svg>
